<svg xmlns="http://www.w3.org/2000/svg" version="1.1" xmlns:xlink="http://www.w3.org/1999/xlink" xmlns:svgjs="http://svgjs.dev/svgjs" width="1000" height="90" viewBox="0 0 1000 90"><g transform="matrix(1,0,0,1,-0.6060606060606233,0.5527038491241427)"><svg viewBox="0 0 396 36" data-background-color="#ffffff" preserveAspectRatio="xMidYMid meet" height="90" width="1000" xmlns="http://www.w3.org/2000/svg" xmlns:xlink="http://www.w3.org/1999/xlink"><g id="tight-bounds" transform="matrix(1,0,0,1,0.2400000000000091,-0.18547724305074098)"><svg viewBox="0 0 395.52 36.37095448610147" height="36.37095448610147" width="395.52"><g><svg viewBox="0 0 476.8616341720307 43.85091219821727" height="36.37095448610147" width="395.52"><g transform="matrix(1,0,0,1,0,0.772097585738031)"><svg viewBox="0 0 395.52 42.30671702674121" height="42.30671702674121" width="395.52"><g id="textblocktransform"><svg viewBox="0 0 395.52 42.30671702674121" height="42.30671702674121" width="395.52" id="textblock"><g><svg viewBox="0 0 395.52 42.30671702674121" height="42.30671702674121" width="395.52"><g transform="matrix(1,0,0,1,0,0)"><svg width="395.52" viewBox="2.25 -35.20000076293945 330.9200134277344 35.400001525878906" height="42.30671702674121" data-palette-color="#aaaaaa"><path d="M15.3 0L12.15 0 12.15-32 2.25-32 2.5-35 25.15-35 24.9-32 15.3-32 15.3 0ZM43.45-35.2L43.45-35.2Q58.2-35.2 58.2-17.4L58.2-17.4Q58.2-9.25 54-4.53 49.8 0.2 43.45 0.2L43.45 0.2Q36.7 0.2 33-3.5L33-3.5Q28.7-7.9 28.7-16.75 28.7-25.6 32.92-30.4 37.15-35.2 43.45-35.2ZM35.45-5.9L35.45-5.9Q38.2-2.8 43.45-2.8L43.45-2.8Q48.4-2.8 51.6-6.73 54.8-10.65 54.8-18 54.8-25.35 51.45-29.05L51.45-29.05Q48.65-32.2 43.45-32.2L43.45-32.2Q38.55-32.2 35.32-28.25 32.1-24.3 32.1-16.93 32.1-9.55 35.45-5.9ZM64.45 0L64.45-35 73.45-35Q83.95-35 87.15-26.2L87.15-26.2Q88.35-23 88.35-17.78 88.35-12.55 87.2-8.97 86.05-5.4 83.95-3.4 81.85-1.4 78.87-0.7 75.9 0 72.2 0L72.2 0 64.45 0ZM73.2-32.25L67.85-32.25 67.85-2.75 71.95-2.75Q74.55-2.75 76.95-3.2L76.95-3.2Q84.95-4.6 84.95-18.05L84.95-18.05Q84.95-25.6 81.45-29.2L81.45-29.2Q78.4-32.25 73.2-32.25L73.2-32.25ZM109.09-35.2L109.09-35.2Q123.84-35.2 123.84-17.4L123.84-17.4Q123.84-9.25 119.64-4.53 115.44 0.2 109.09 0.2L109.09 0.2Q102.34 0.2 98.64-3.5L98.64-3.5Q94.34-7.9 94.34-16.75 94.34-25.6 98.57-30.4 102.79-35.2 109.09-35.2ZM101.09-5.9L101.09-5.9Q103.84-2.8 109.09-2.8L109.09-2.8Q114.04-2.8 117.24-6.73 120.44-10.65 120.44-18 120.44-25.35 117.09-29.05L117.09-29.05Q114.29-32.2 109.09-32.2L109.09-32.2Q104.19-32.2 100.97-28.25 97.74-24.3 97.74-16.93 97.74-9.55 101.09-5.9ZM149.29-3L149.04 0 130.09 0 130.09-35 133.49-35 133.49-3 149.29-3ZM164.09-2.4L164.09 0 154.69 0 154.69-2.4 157.69-2.75 157.69-32.2 154.94-32.55 154.94-35 163.84-35 163.84-32.55 161.09-32.2 161.09-2.75 164.09-2.4ZM190.89-34.1L190.89-34.1 190.29-31.25Q186.44-32.1 183.74-32.1L183.74-32.1Q174.04-32.1 174.04-26.2L174.04-26.2Q174.04-23.95 175.46-22.75 176.89-21.55 179.06-20.78 181.24-20 183.74-19.38 186.24-18.75 188.39-17.7L188.39-17.7Q193.44-15.2 193.44-10.05 193.44-4.9 189.59-2.25L189.59-2.25Q186.29 0.05 180.89 0.05L180.89 0.05Q174.19 0.05 169.59-3L169.59-3 170.89-5.55Q172.24-4.6 174.74-3.78 177.24-2.95 179.59-2.95L179.59-2.95Q184.19-2.95 186.84-4.45L186.84-4.45Q190.04-6.3 190.04-9.75L190.04-9.75Q190.04-12.3 188.61-13.73 187.19-15.15 185.01-16.03 182.84-16.9 180.34-17.53 177.84-18.15 175.69-19.1L175.69-19.1Q170.64-21.3 170.64-25.65 170.64-30 173.64-32.55 176.64-35.1 182.14-35.1L182.14-35.1Q186.39-35.1 190.89-34.1ZM209.63 0L206.48 0 206.48-32 196.58-32 196.83-35 219.48-35 219.23-32 209.63-32 209.63 0ZM229.03-14.5L244.13-14.5 244.13-11.6 229.03-11.6 229.03-14.5ZM279.13 0L275.83-9.25 260.43-9.25 257.23 0 253.98 0 266.63-35 269.68-35 282.78 0 279.13 0ZM267.98-31.2L261.28-11.75 274.93-11.75 267.98-31.2ZM291.98 0L288.58 0 288.58-35 295.83-35Q301.98-35 304.73-33.05L304.73-33.05Q307.93-30.8 307.93-25.35L307.93-25.35Q307.93-16.25 300.93-14.25L300.93-14.25Q298.68-13.6 295.83-13.6L295.83-13.6 291.98-13.6 291.98 0ZM295.58-32.25L291.98-32.25 291.98-16.35 295.58-16.35Q300.08-16.35 302.3-18.32 304.53-20.3 304.53-24.78 304.53-29.25 302.3-30.75 300.08-32.25 295.58-32.25L295.58-32.25ZM317.22 0L313.82 0 313.82-35 321.07-35Q327.22-35 329.97-33.05L329.97-33.05Q333.17-30.8 333.17-25.35L333.17-25.35Q333.17-16.25 326.17-14.25L326.17-14.25Q323.92-13.6 321.07-13.6L321.07-13.6 317.22-13.6 317.22 0ZM320.82-32.25L317.22-32.25 317.22-16.35 320.82-16.35Q325.32-16.35 327.55-18.32 329.77-20.3 329.77-24.78 329.77-29.25 327.55-30.75 325.32-32.25 320.82-32.25L320.82-32.25Z" opacity="1" transform="matrix(1,0,0,1,0,0)" fill="#aaaaaa" class="wordmark-text-0" data-fill-palette-color="primary" id="text-0"></path></svg></g></svg></g></svg></g></svg></g><g transform="matrix(1,0,0,1,405.5076005288049,0)"><svg viewBox="0 0 71.35403364322575 43.85091219821727" height="43.85091219821727" width="71.35403364322575"><g><svg xmlns="http://www.w3.org/2000/svg" data-name="Layer 1" viewBox="2.430551767349243 20.79190444946289 95.1390609741211 58.46809768676758" x="0" y="0" height="43.85091219821727" width="71.35403364322575" class="icon-icon-0" data-fill-palette-color="accent" id="icon-0"><path d="M62.78 23l32 55.42 1.3-2.26h-64l1.3 2.26L65.37 23a1.5 1.5 0 0 0-2.59-1.51L30.79 77a1.51 1.51 0 0 0 1.3 2.26h64A1.51 1.51 0 0 0 97.37 77l-32-55.42A1.5 1.5 0 0 0 62.78 23Z" fill="#ffd700" data-fill-palette-color="accent"></path><path d="M34.63 23l32 55.42 1.3-2.26h-64l1.3 2.26L37.22 23a1.5 1.5 0 0 0-2.59-1.51L2.63 77a1.51 1.51 0 0 0 1.3 2.26h64A1.51 1.51 0 0 0 69.21 77l-32-55.42A1.5 1.5 0 0 0 34.63 23Z" fill="#ffd700" data-fill-palette-color="accent"></path></svg></g></svg></g></svg></g><defs></defs></svg><rect width="395.52" height="36.37095448610147" fill="none" stroke="none" visibility="hidden"></rect></g></svg></g></svg>